<?xml version="1.0" encoding="UTF-8"?>
<svg width="1024" height="1024" viewBox="0 0 1024 1024" fill="none" xmlns="http://www.w3.org/2000/svg">
  <rect width="1024" height="1024" rx="224" fill="#4A90E2"/>
  <path d="M512 256C384.5 256 280 360.5 280 488C280 615.5 384.5 720 512 720C639.5 720 744 615.5 744 488C744 360.5 639.5 256 512 256ZM512 664C420.2 664 344 587.8 344 496C344 404.2 420.2 328 512 328C603.8 328 680 404.2 680 496C680 587.8 603.8 664 512 664Z" fill="white"/>
  <path d="M512 376C466.7 376 432 410.7 432 456C432 501.3 466.7 536 512 536C557.3 536 592 501.3 592 456C592 410.7 557.3 376 512 376Z" fill="white"/>
  <path d="M512 568C466.7 568 432 602.7 432 648C432 693.3 466.7 728 512 728C557.3 728 592 693.3 592 648C592 602.7 557.3 568 512 568Z" fill="white"/>
</svg> 